<?xml version="1.0" encoding="UTF-8"?>
<svg id="a" xmlns="http://www.w3.org/2000/svg" viewBox="0 0 123.985922568 21.7190551181">
<path fill="#6bc5cb" d="M107.3700087609,13.9882832895c.0013844549-4.0345425306,3.1051187755-7.3896237996,7.1273538359-7.7045368258h-.6733788344c-4.0877848286.2384377406-7.2806079864,3.6229244975-7.2806079864,7.7176549527,0,4.0947287872,3.1928231577,7.4792155441,7.2806079864,7.7176537017h.6733788344c-4.0323065526-.3156823995-7.1396904964-3.6861461297-7.1273538359-7.7307718287Z"/>
<path fill="#e73554" d="M116.2551532414,6.2575106268h-.6821259203c4.0092078405.3311432576,7.0944071459,3.6816741736,7.0944071459,7.7045372428,0,4.0228622352-3.0851993055,7.3733931512-7.0944071459,7.7045364088h.6821259203c4.2695854378,0,7.7307693266-3.4611838888,7.7307693266-7.7307726627,0-4.2695875228-3.4611838888-7.7307722457-7.7307693266-7.7307722457v.0524712567Z"/>
<path fill="currentColor" d="M115.0308214159,17.7487271074c-2.0768357682,0-3.7604429839-1.6836080496-3.7604429839-3.7604438179s1.6836072156-3.7604438179,3.7604429839-3.7604438179,3.7604463199,1.6836080496,3.7604463199,3.7604438179c-.0048105637,2.0748408188-1.6856055011,3.7556349222-3.7604463199,3.7604438179h0ZM115.0308214159,6.2575106268c-4.2695887738,0-7.7307726627,3.4611847228-7.7307726627,7.7307726627s3.4611838888,7.7307718287,7.7307726627,7.7307718287c4.2695854378,0,7.7307693266-3.4611838888,7.7307693266-7.7307718287,0-2.0503284615-.8144864783-4.0166805607-2.2642876221-5.4664817045s-3.4161540771-2.2642909581-5.4664817045-2.2642909581Z"/>
<path fill="#6bc5cb" d="M25.3196125274,13.9882832895c.0013844549-4.0345425306,3.1051187755-7.3896237996,7.1273538359-7.7045368258h-.6733788344c-4.0877848286.2384377406-7.2806079864,3.6229244975-7.2806079864,7.7176549527,0,4.0947287872,3.1928231577,7.4792155441,7.2806079864,7.7176537017h.6733788344c-4.0323065526-.3156823995-7.1396904964-3.6861461297-7.1273538359-7.7307718287Z"/>
<path fill="#e73554" d="M34.2047570079,6.2575106268h-.6821259203c4.0092078405.3311432576,7.0944071459,3.6816741736,7.0944071459,7.7045372428,0,4.0228622352-3.0851993055,7.3733931512-7.0944071459,7.7045364088h.6821259203c4.2695854378,0,7.7307693266-3.4611838888,7.7307693266-7.7307726627,0-4.2695875228-3.4611838888-7.7307722457-7.7307693266-7.7307722457v.0524712567Z"/>
<path fill="currentColor" d="M32.9804251824,17.7487271074c-2.0768357682,0-3.7604429839-1.6836080496-3.7604429839-3.7604438179s1.6836072156-3.7604438179,3.7604429839-3.7604438179,3.7604463199,1.6836080496,3.7604463199,3.7604438179c-.0048105637,2.0748408188-1.6856055011,3.7556349222-3.7604463199,3.7604438179h0ZM32.9804251824,6.2575106268c-4.2695887738,0-7.7307726627,3.4611847228-7.7307726627,7.7307726627s3.4611838888,7.7307718287,7.7307726627,7.7307718287c4.2695854378,0,7.7307693266-3.4611838888,7.7307693266-7.7307718287,0-2.0503284615-.8144864783-4.0166805607-2.2642876221-5.4664817045s-3.4161540771-2.2642909581-5.4664817045-2.2642909581Z"/>
<path fill="currentColor" d="M6.2052441395,3.8632724334H0V0h17.0346446194v3.8632724334h-6.205711226v17.3994391751h-4.6236892538V3.8632724334Z"/>
<path fill="currentColor" d="M46.8055525699,20.3047171991c-.8818593102-.9430476415-1.3232560517-2.2560277903-1.3232560517-3.9394075328v-6.3878749607h-2.129447349v-3.3158470566h2.129447349V2.2812504612h4.5933286314v4.3803371878h3.4372895463v3.3158470566h-3.4372895463v5.7792612524c0,.8519657742.1620790152,1.4657174339.486704132,1.8403208062.3241580303.3755375452.9019440296.5628392313,1.7338250844.5628392313.6693349531,0,1.3078421973-.1620790152,1.9164559055-.486704132v3.4372895463c-.933238825.4054310812-2.1093626296.6086137082-3.5283714136.6086137082-1.7034644619,0-2.9963598912-.471757364-3.8786862879-1.414337919Z"/>
<path fill="currentColor" d="M58.0330931436,19.6961034908c-1.6021066917-1.3484787227-2.4031600375-3.2397119572-2.4031600375-5.6732326171,0-2.412968854.7146423435-4.3191488565,2.144394117-5.7185400075s3.4727881202-2.0990867266,6.1295761267-2.0990867266c1.7436339009,0,3.2242981028.3246251168,4.4410584327.973408264,1.21676033.6492502336,2.1392561655,1.5465233983,2.7679545932,2.6922865804s.9430476415,2.4386586114.9430476415,3.8782192014v1.8557346606h-12.0456937233c.3241580303,1.8660105636,2.0682590177,2.7983152157,5.2318358756,2.7983152157.9327717386,0,1.8959040995-.0808059643,2.8898641695-.243352066.9934929834-.1620790152,1.8557346606-.3848792752,2.5857908586-.6688678666v3.2242981028c-.7099714785.3040733109-1.6226584976.5474253769-2.7375939708.730056198-1.1158696462.1821637346-2.2312722058.2737126884-3.346207679.2737126884-2.7987823022,0-4.9992267991-.6740058181-6.6008664042-2.0229516273ZM67.7059874519,12.6239468091c-.0607212449-.973408264-.4255158006-1.7286871329-1.0948507537-2.2663036933-.6693349531-.5371494739-1.5922978752-.8061912973-2.7679545932-.8061912973-1.1560390851,0-2.0687261042.2737126884-2.7380610573.8211380653-.6688678666.5478924634-1.0341295088,1.2980333808-1.0948507537,2.2513569253h7.6957171579Z"/>
<path fill="currentColor" d="M75.8157256445,19.6961034908c-1.5619372527-1.3484787227-2.3424387926-3.2495207737-2.3424387926-5.7035932396,0-2.4531382929.7856394914-4.3649233334,2.3573855606-5.733953862,1.5712789827-1.3685634421,3.6755036608-2.0533122497,6.3122069478-2.0533122497,2.391482875,0,4.299064137.4465346931,5.719007094,1.3386699062v3.6199203674c-.6501844066-.4666194125-1.4049961891-.8108621623-2.2663036933-1.0345965953-.8631758502-.22280026-1.7693236583-.3344339333-2.7221801163-.3344339333-1.419942957,0-2.5558973227.3451769228-3.4073960104,1.0341295088-.8519657742.6898867591-1.2779486613,1.7445680739-1.2779486613,3.1635768579,0,1.419942957.4208449356,2.4694863203,1.2625348069,3.1486300899.8407556982.6796108561,1.9711050259,1.0187156544,3.3910479829,1.0187156544,1.9673683339,0,3.7011934183-.4759611425,5.2014752531-1.4297517735v3.589559745c-1.5002818349.933238825-3.4769918987,1.3993911511-5.9301301916,1.3993911511-2.6371703735,0-4.7362571001-.6740058181-6.2972601798-2.0229516273Z"/>
<path fill="currentColor" d="M89.4604388506,6.6615876491h4.4410584327v1.7950134157c.6698020396-.7501409174,1.4647832609-1.3129801488,2.387746183-1.688517694.9229629221-.3750704587,1.890766148-.5628392313,2.9052780239-.5628392313,1.9865188803,0,3.4718539472.5324786089,4.4564722872,1.5969687402.9827499939,1.0649572178,1.4750591639,2.4998469428,1.4750591639,4.304669175v9.1558295539h-4.5928615449v-8.6387647994c0-1.8860952831-.8725175802-2.8291429246-2.6156843945-2.8291429246-.7716268964,0-1.4909401049.1877687726-2.1598079715.5628392313-.6698020396.3755375452-1.2377792224.9276337871-1.7039315484,1.657689985v9.2473785077h-4.5933286314V6.6615876491Z"/><rect fill="currentColor" x="18.451967454" y="6.6615876491" width="4.6236892538" height="14.6011239595"/>
<circle fill="currentColor" cx="20.763812081" cy="2.3116531723" r="2.3116534108"/>
</svg>